<?xml version="1.0" encoding="utf-8"?>
<!-- Generator: Adobe Illustrator 27.9.3, SVG Export Plug-In . SVG Version: 9.03 Build 53313)  -->
<svg version="1.1" id="Layer_1" xmlns="http://www.w3.org/2000/svg" xmlns:xlink="http://www.w3.org/1999/xlink" x="0px" y="0px"
	 viewBox="0 0 677.4 634.9" style="enable-background:new 0 0 677.4 634.9;" xml:space="preserve">
<style type="text/css">
	.st0{fill:#500000;}
	.st1{fill:#FFFFFF;}
	.st2{fill:#B1B3B6;}
</style>
<g>
	<rect class="st0" width="629.8" height="634.8"/>
	<polygon class="st1" points="546.2,252.6 499.4,252.6 496.7,252.6 495.5,255.1 461.6,325.7 427.5,255.1 426.3,252.6 423.6,252.6 
		378.4,252.6 374.2,252.6 374.2,256.9 374.2,281 374.2,285.3 378.4,285.3 386.2,285.3 386.2,386.4 377.8,386.4 373.5,386.4 
		373.5,390.8 373.5,414.8 373.5,419.1 377.8,419.1 428.6,419.1 432.9,419.1 432.9,414.8 432.9,390.8 432.9,386.4 428.6,386.4 
		419.8,386.4 419.8,314.7 457.7,392.9 461.6,400.9 465.5,392.9 503.8,314.5 503.8,386.4 495.4,386.4 491.1,386.4 491.1,390.8 
		491.1,414.8 491.1,419.1 495.4,419.1 546.2,419.1 550.5,419.1 550.5,414.8 550.5,390.8 550.5,386.4 546.2,386.4 537.4,386.4 
		537.4,285.3 546.2,285.3 550.5,285.3 550.5,281 550.5,256.9 550.5,252.6 	"/>
	<path class="st1" d="M251.3,386.3h-13.5l-44-101.5h8.5V252h-70.5v32.7h9.7L97.6,386.2H79.3v32.7h64v-32.7H134l7.3-16.9h52.8
		l7.3,16.9h-9.8v32.7h64.1v-32.7L251.3,386.3L251.3,386.3z M180,336.8h-24.5l12.2-28.4L180,336.8L180,336.8z"/>
	<polygon class="st1" points="492.4,125.7 136.2,125.7 131.3,125.7 131.3,130.6 131.3,225.8 131.3,230.7 136.2,230.7 197.7,230.7 
		202.6,230.7 202.6,225.8 202.6,190.4 278.6,190.4 278.6,441.2 243.3,441.2 238.4,441.2 238.4,446.1 238.4,507.6 238.4,512.6 
		243.3,512.6 385.3,512.6 390.3,512.6 390.3,507.6 390.3,446.1 390.3,441.2 385.3,441.2 350,441.2 350,190.4 425.6,190.4 
		425.6,225.3 425.6,230.3 430.5,230.3 492.4,230.3 497.4,230.3 497.4,225.3 497.4,130.6 497.4,125.7 	"/>
	<polygon class="st2" points="360.6,470.5 375.6,455 375.6,497.5 360.6,483.1 	"/>
	<polygon class="st2" points="335.5,456.1 320.4,470.9 320.4,160.9 335.5,175.9 	"/>
	<polygon class="st2" points="161.4,155.4 146,140.4 475.2,140.4 455.7,155.4 	"/>
	<polygon class="st2" points="483.1,216.5 468.1,202.1 468.1,163.8 483.1,148.4 	"/>
	<path class="st0" d="M652.2,622.2c0-7,5.7-12.6,12.6-12.6s12.6,5.7,12.6,12.6s-5.7,12.6-12.6,12.6S652.2,629.2,652.2,622.2
		L652.2,622.2z M674.4,622.2c-0.3-5.3-4.9-9.2-10.2-8.9c-5.3,0.3-9.2,4.9-8.9,10.2c0.3,5,4.5,8.9,9.5,8.9c5.3-0.1,9.6-4.5,9.6-9.8
		C674.4,622.5,674.4,622.3,674.4,622.2L674.4,622.2z M659.9,615h5.3c3.5,0,5.3,1.2,5.3,4.2c0.2,1.9-1.2,3.6-3.1,3.8
		c-0.2,0-0.4,0-0.6,0l3.8,6.3h-2.7l-3.7-6.2h-1.6v6.1h-2.7L659.9,615L659.9,615z M662.6,621.1h2.3c1.6,0,2.9-0.2,2.9-2.1
		s-1.5-2-2.9-2h-2.4V621.1z"/>
</g>
</svg>
